<svg width="30" height="41" viewBox="0 0 30 41" fill="none" xmlns="http://www.w3.org/2000/svg">
<path d="M29.4823 10.0913L20.5933 1.2023C20.5125 1.11881 20.4159 1.05221 20.3091 1.00638C20.2024 0.96054 20.0875 0.936381 19.9713 0.935303H3.08234C2.37566 0.937413 1.69852 1.21908 1.19882 1.71878C0.699119 2.21848 0.417455 2.89562 0.415344 3.6023V38.2683C0.417455 38.975 0.699119 39.6521 1.19882 40.1518C1.69852 40.6515 2.37566 40.9332 3.08234 40.9353H27.0823C27.789 40.9332 28.4662 40.6515 28.9659 40.1518C29.4656 39.6521 29.7472 38.975 29.7493 38.2683V10.7133C29.7483 10.5971 29.7241 10.4823 29.6783 10.3755C29.6324 10.2687 29.5658 10.1721 29.4823 10.0913ZM20.8593 3.9573L26.7263 9.8243H21.7483C21.5128 9.82351 21.2871 9.7296 21.1206 9.56305C20.9541 9.3965 20.8601 9.17084 20.8593 8.9353V3.9573ZM27.0813 39.1573H3.08134C2.84581 39.1565 2.62015 39.0626 2.4536 38.896C2.28705 38.7295 2.19314 38.5038 2.19234 38.2683V3.6023C2.19314 3.36677 2.28705 3.14111 2.4536 2.97456C2.62015 2.80801 2.84581 2.71409 3.08134 2.7133H19.0813V8.9353C19.0835 9.64199 19.3651 10.3191 19.8648 10.8188C20.3645 11.3185 21.0417 11.6002 21.7483 11.6023H27.9703V38.2683C27.9696 38.5037 27.8758 38.7292 27.7094 38.8957C27.5431 39.0622 27.3177 39.1562 27.0823 39.1573H27.0813ZM19.9713 26.7133H13.7483V20.4913C13.7476 20.2558 13.6536 20.0301 13.4871 19.8636C13.3205 19.697 13.0949 19.6031 12.8593 19.6023C11.2771 19.6023 9.73038 20.0715 8.41478 20.9505C7.09919 21.8296 6.07381 23.079 5.46831 24.5408C4.86281 26.0026 4.70438 27.6112 5.01306 29.163C5.32174 30.7149 6.08367 32.1403 7.20249 33.2592C8.32131 34.378 9.74677 35.1399 11.2986 35.4486C12.8505 35.7573 14.459 35.5988 15.9208 34.9933C17.3826 34.3878 18.632 33.3625 19.5111 32.0469C20.3902 30.7313 20.8593 29.1846 20.8593 27.6023C20.8586 27.3669 20.7648 27.1414 20.5984 26.9749C20.4321 26.8084 20.2067 26.7144 19.9713 26.7133ZM12.8603 33.8243C11.2871 33.8204 9.77352 33.2217 8.6233 32.1483C7.47309 31.0749 6.77133 29.6063 6.65882 28.037C6.54632 26.4678 7.0314 24.9141 8.01673 23.6876C9.00205 22.4611 10.4147 21.6526 11.9713 21.4243V27.6023C11.9721 27.8378 12.0661 28.0635 12.2326 28.23C12.3991 28.3966 12.6248 28.4905 12.8603 28.4913H19.0383C18.8156 29.9719 18.07 31.3238 16.9365 32.3021C15.803 33.2804 14.3566 33.8204 12.8593 33.8243H12.8603ZM17.3043 15.1573C17.0688 15.1581 16.8431 15.252 16.6766 15.4186C16.5101 15.5851 16.4161 15.8108 16.4153 16.0463V23.1573C16.4161 23.3928 16.5101 23.6185 16.6766 23.785C16.8431 23.9516 17.0688 24.0455 17.3043 24.0463H24.4153C24.6509 24.0455 24.8765 23.9516 25.0431 23.785C25.2096 23.6185 25.3036 23.3928 25.3043 23.1573C25.298 21.0375 24.4531 19.0064 22.9542 17.5074C21.4553 16.0085 19.4241 15.1636 17.3043 15.1573ZM18.1933 22.2683V16.9793C19.5232 17.1829 20.7533 17.8057 21.7046 18.757C22.6559 19.7083 23.2787 20.9385 23.4823 22.2683H18.1933Z" fill="black"/>
</svg>
