<svg width="20" height="20" viewBox="0 0 20 20" fill="none" xmlns="http://www.w3.org/2000/svg">
<path d="M5.92 4.62003C5.97124 4.74025 5.99842 4.86935 6 5.00003C5.99632 5.2648 5.89273 5.5184 5.71 5.71003C5.6128 5.79836 5.50118 5.86939 5.38 5.92003C5.26132 5.97601 5.13118 6.00341 5 6.00003C4.73523 5.99635 4.48163 5.89276 4.29 5.71003C4.19732 5.61659 4.12399 5.50577 4.07423 5.38394C4.02446 5.2621 3.99924 5.13164 4 5.00003C4.00158 4.86935 4.02876 4.74025 4.08 4.62003C4.13064 4.49885 4.20167 4.38723 4.29 4.29003C4.43062 4.15127 4.6092 4.05728 4.80319 4.0199C4.99718 3.98253 5.19789 4.00345 5.38 4.08003C5.50118 4.13067 5.6128 4.2017 5.71 4.29003C5.79833 4.38723 5.86936 4.49885 5.92 4.62003ZM15 4.00003H9C8.73478 4.00003 8.48043 4.10539 8.29289 4.29292C8.10536 4.48046 8 4.73481 8 5.00003C8 5.26525 8.10536 5.5196 8.29289 5.70714C8.48043 5.89467 8.73478 6.00003 9 6.00003H15C15.2652 6.00003 15.5196 5.89467 15.7071 5.70714C15.8946 5.5196 16 5.26525 16 5.00003C16 4.73481 15.8946 4.48046 15.7071 4.29292C15.5196 4.10539 15.2652 4.00003 15 4.00003ZM5.38 9.08003C5.19789 9.00345 4.99718 8.98253 4.80319 9.0199C4.6092 9.05727 4.43062 9.15127 4.29 9.29003C4.1974 9.3839 4.12581 9.49639 4.08 9.62003C4.02876 9.74025 4.00158 9.86935 4 10C3.99924 10.1316 4.02446 10.2621 4.07423 10.3839C4.12399 10.5058 4.19732 10.6166 4.29 10.71C4.48163 10.8928 4.73523 10.9963 5 11C5.13068 10.9984 5.25978 10.9713 5.38 10.92C5.50118 10.8694 5.6128 10.7984 5.71 10.71L5.83 10.56C5.86785 10.5043 5.89811 10.4438 5.92 10.38C5.95579 10.3245 5.98278 10.2638 6 10.2C6.00491 10.1335 6.00491 10.0666 6 10C5.99632 9.73526 5.89273 9.48166 5.71 9.29003C5.6128 9.2017 5.50118 9.13067 5.38 9.08003ZM15 9.00003H9C8.73478 9.00003 8.48043 9.10539 8.29289 9.29292C8.10536 9.48046 8 9.73481 8 10C8 10.2652 8.10536 10.5196 8.29289 10.7071C8.48043 10.8947 8.73478 11 9 11H15C15.2652 11 15.5196 10.8947 15.7071 10.7071C15.8946 10.5196 16 10.2652 16 10C16 9.73481 15.8946 9.48046 15.7071 9.29292C15.5196 9.10539 15.2652 9.00003 15 9.00003ZM5.71 14.29C5.6128 14.2017 5.50118 14.1307 5.38 14.08C5.19789 14.0034 4.99718 13.9825 4.80319 14.0199C4.6092 14.0573 4.43062 14.1513 4.29 14.29C4.19896 14.3851 4.12759 14.4973 4.08 14.62C4.02709 14.7397 3.99977 14.8692 3.99977 15C3.99977 15.1309 4.02709 15.2603 4.08 15.38C4.12759 15.5028 4.19896 15.6149 4.29 15.71C4.48163 15.8928 4.73523 15.9963 5 16C5.13068 15.9984 5.25978 15.9713 5.38 15.92C5.50118 15.8694 5.6128 15.7984 5.71 15.71C5.80104 15.6149 5.87241 15.5028 5.92 15.38C5.9729 15.2603 6.00023 15.1309 6.00023 15C6.00023 14.8692 5.9729 14.7397 5.92 14.62C5.87241 14.4973 5.80104 14.3851 5.71 14.29ZM15 14H9C8.73478 14 8.48043 14.1054 8.29289 14.2929C8.10536 14.4805 8 14.7348 8 15C8 15.2652 8.10536 15.5196 8.29289 15.7071C8.48043 15.8947 8.73478 16 9 16H15C15.2652 16 15.5196 15.8947 15.7071 15.7071C15.8946 15.5196 16 15.2652 16 15C16 14.7348 15.8946 14.4805 15.7071 14.2929C15.5196 14.1054 15.2652 14 15 14ZM20 3.00003V17C20 17.7957 19.6839 18.5587 19.1213 19.1213C18.5587 19.684 17.7956 20 17 20H3C2.20435 20 1.44129 19.684 0.87868 19.1213C0.316071 18.5587 0 17.7957 0 17V3.00003C0 2.20438 0.316071 1.44132 0.87868 0.87871C1.44129 0.316101 2.20435 3.05176e-05 3 3.05176e-05H17C17.7956 3.05176e-05 18.5587 0.316101 19.1213 0.87871C19.6839 1.44132 20 2.20438 20 3.00003ZM18 3.00003C18 2.73481 17.8946 2.48046 17.7071 2.29292C17.5196 2.10539 17.2652 2.00003 17 2.00003H3C2.73478 2.00003 2.48043 2.10539 2.29289 2.29292C2.10536 2.48046 2 2.73481 2 3.00003V17C2 17.2652 2.10536 17.5196 2.29289 17.7071C2.48043 17.8947 2.73478 18 3 18H17C17.2652 18 17.5196 17.8947 17.7071 17.7071C17.8946 17.5196 18 17.2652 18 17V3.00003Z" fill="#3C3C3C"/>
</svg>
