<svg width="21" height="21" viewBox="0 0 21 21" fill="none" xmlns="http://www.w3.org/2000/svg">
<path d="M3.93261 3.375C3.24225 3.375 2.68261 2.81536 2.68261 2.125C2.68261 1.43464 3.24225 0.875 3.93261 0.875H7.375C8.75571 0.875 9.875 1.99429 9.875 3.375V7.75C9.875 9.13071 8.75571 10.25 7.375 10.25H3C1.61929 10.25 0.5 9.13071 0.5 7.75V5.06834C0.5 4.37798 1.05964 3.81834 1.75 3.81834C2.44036 3.81834 3 4.37798 3 5.06834V7.75H7.375V3.375H3.93261Z" fill="#3C3C3C"/>
<path d="M3 14V18.375H7.375V14H3ZM3 11.5H7.375C8.75571 11.5 9.875 12.6193 9.875 14V18.375C9.875 19.7557 8.75571 20.875 7.375 20.875H3C1.61929 20.875 0.5 19.7557 0.5 18.375V14C0.5 12.6193 1.61929 11.5 3 11.5Z" fill="#3C3C3C"/>
<path d="M13.625 3.375V7.75H18V3.375H13.625ZM13.625 0.875H18C19.3807 0.875 20.5 1.99429 20.5 3.375V7.75C20.5 9.13071 19.3807 10.25 18 10.25H13.625C12.2443 10.25 11.125 9.13071 11.125 7.75V3.375C11.125 1.99429 12.2443 0.875 13.625 0.875Z" fill="#3C3C3C"/>
<path d="M13.625 14V18.375H18V14H13.625ZM13.625 11.5H18C19.3807 11.5 20.5 12.6193 20.5 14V18.375C20.5 19.7557 19.3807 20.875 18 20.875H13.625C12.2443 20.875 11.125 19.7557 11.125 18.375V14C11.125 12.6193 12.2443 11.5 13.625 11.5Z" fill="#3C3C3C"/>
</svg>
