<svg width="12" height="14" viewBox="0 0 12 14" fill="none" xmlns="http://www.w3.org/2000/svg">
<path d="M5.14286 6.06059V1.51514C5.14286 1.01306 5.52661 0.606049 6 0.606049C6.47339 0.606049 6.85714 1.01306 6.85714 1.51514V6.06059H11.1429C11.6162 6.06059 12 6.46761 12 6.96968C12 7.47176 11.6162 7.87878 11.1429 7.87878H6.85714V12.4242C6.85714 12.9263 6.47339 13.3333 6 13.3333C5.52661 13.3333 5.14286 12.9263 5.14286 12.4242V7.87878H0.857143C0.383756 7.87878 0 7.47176 0 6.96968C0 6.46761 0.383756 6.06059 0.857143 6.06059H5.14286Z" fill="white"/>
</svg>
