<svg width="21" height="25" viewBox="0 0 21 25" fill="none" xmlns="http://www.w3.org/2000/svg">
<path d="M20.075 16.65L18.425 14.45V10.45C18.425 7.15 16.35 4.175 13.275 3.025C13.275 1.7 12.175 0.625 10.85 0.625H10.125C8.79999 0.625 7.69999 1.7 7.69999 3.05C4.62499 4.2 2.54999 7.15 2.54999 10.475V14.475L0.899988 16.675C0.374988 17.375 0.299988 18.3 0.674988 19.1C1.04999 19.9 1.84999 20.375 2.74999 20.375H6.42499C6.42499 22.6 8.24999 24.425 10.475 24.425C12.7 24.425 14.525 22.625 14.525 20.375H18.2C19.075 20.375 19.875 19.875 20.275 19.1C20.675 18.275 20.6 17.35 20.075 16.65ZM10.5 22.525C9.29999 22.525 8.29999 21.55 8.29999 20.35H12.7C12.7 21.55 11.7 22.525 10.5 22.525ZM18.625 18.225C18.575 18.3 18.475 18.475 18.225 18.475H2.77499C2.52499 18.475 2.39999 18.3 2.37499 18.225C2.32499 18.15 2.27499 17.95 2.42499 17.75L4.24999 15.3C4.37499 15.15 4.42499 14.95 4.42499 14.75V10.45C4.42499 7.725 6.27499 5.325 8.89999 4.6C9.29999 4.5 9.57499 4.125 9.57499 3.7V3.025C9.57499 2.7 9.82499 2.45 10.15 2.45H10.875C11.2 2.45 11.45 2.7 11.45 3.025V3.675C11.45 4.1 11.725 4.45 12.125 4.575C14.75 5.325 16.575 7.75 16.575 10.45V14.75C16.575 14.95 16.65 15.15 16.75 15.3L18.575 17.75C18.75 17.95 18.675 18.15 18.625 18.225Z" fill="#3C3C3C"/>
</svg>
